<mxfile host="drawio-plugin" modified="2021-09-15T06:17:23.301Z" agent="5.0 (X11; Linux x86_64) AppleWebKit/537.36 (KHTML, like Gecko) Chrome/89.0.4389.114 Safari/537.36" version="14.7.4" etag="9bt0aqbGcerMk72EPd3I" type="embed"><diagram id="ZqBQ7cdYR80x_-Ie3_QD" name="Page-1"><mxGraphModel dx="613" dy="448" grid="1" gridSize="10" guides="1" tooltips="1" connect="1" arrows="1" fold="1" page="1" pageScale="1" pageWidth="827" pageHeight="1169" math="0" shadow="0"><root><mxCell id="0"/><mxCell id="1" parent="0"/></root></mxGraphModel></diagram></mxfile>